<svg width="24" height="24" viewBox="0 0 24 24" fill="none" xmlns="http://www.w3.org/2000/svg">
<path d="M15.9983 3.30252C15.9983 2.64935 15.7638 2.01084 15.3245 1.46774C14.8852 0.924644 14.2607 0.501351 13.5301 0.251391C12.7995 0.00143092 11.9956 -0.06397 11.22 0.0634585C10.4444 0.190887 9.73192 0.505422 9.17274 0.967288C8.61356 1.42915 8.23276 2.01761 8.07848 2.65823C7.9242 3.29886 8.00338 3.96289 8.30601 4.56635C8.60863 5.1698 9.12111 5.68559 9.77864 6.04847C10.4362 6.41136 11.2092 6.60505 12 6.60505C13.0604 6.60505 14.0774 6.2571 14.8273 5.63776C15.5771 5.01842 15.9983 4.17841 15.9983 3.30252ZM12 4.95379C11.6046 4.95379 11.2181 4.85694 10.8893 4.6755C10.5606 4.49406 10.3043 4.23616 10.153 3.93444C10.0017 3.63271 9.9621 3.30069 10.0392 2.98038C10.1164 2.66007 10.3068 2.36584 10.5864 2.13491C10.866 1.90397 11.2222 1.74671 11.61 1.68299C11.9978 1.61928 12.3997 1.65198 12.7651 1.77696C13.1304 1.90194 13.4426 2.11358 13.6623 2.38513C13.8819 2.65668 13.9992 2.97594 13.9992 3.30252C13.9992 3.74047 13.7885 4.16047 13.4136 4.47014C13.0387 4.77981 12.5302 4.95379 12 4.95379ZM23.2878 13.0088L17.6439 7.72275C17.2687 7.37141 16.8072 7.09004 16.2902 6.89734C15.7731 6.70463 15.2124 6.605 14.6452 6.60505H9.35485C8.78762 6.605 8.22686 6.70463 7.70984 6.89734C7.19281 7.09004 6.73134 7.37141 6.35609 7.72275L0.71217 13.0088C0.253831 13.396 -0.0019367 13.9165 1.10433e-05 14.458C0.00195878 14.9995 0.261466 15.5187 0.722583 15.9036C1.1837 16.2886 1.80949 16.5084 2.46503 16.5158C3.12058 16.5231 3.75336 16.3174 4.22697 15.9429L6.26362 14.593L4.19698 21.0825C3.92326 21.5813 3.90066 22.1496 4.13416 22.6622C4.36767 23.1748 4.83814 23.5898 5.44209 23.8158C6.04604 24.0419 6.73398 24.0606 7.35459 23.8677C7.97519 23.6749 8.47762 23.2863 8.75134 22.7874L12 18.1567L15.2487 22.7874C15.5346 23.2695 16.0367 23.6406 16.6485 23.822C17.2602 24.0034 17.9334 23.9808 18.5253 23.759C19.1172 23.5372 19.5812 23.1336 19.8188 22.6339C20.0564 22.1342 20.0489 21.5777 19.798 21.0825L17.7364 14.593L19.773 15.9429C20.2466 16.3174 20.8794 16.5231 21.535 16.5158C22.1905 16.5084 22.8163 16.2886 23.2774 15.9036C23.7385 15.5187 23.998 14.9995 24 14.458C24.0019 13.9165 23.7462 13.396 23.2878 13.0088ZM21.8497 14.7396C21.8033 14.778 21.7481 14.8084 21.6875 14.8292C21.6268 14.85 21.5618 14.8606 21.4961 14.8606C21.4304 14.8606 21.3654 14.85 21.3047 14.8292C21.244 14.8084 21.1889 14.778 21.1425 14.7396C21.1162 14.7189 21.09 14.6983 21.0613 14.6797L16.6231 11.7405C16.4593 11.6325 16.2585 11.5697 16.0492 11.5611C15.8399 11.5525 15.6326 11.5985 15.4566 11.6925C15.2806 11.7865 15.1449 11.9238 15.0686 12.085C14.9922 12.2462 14.9792 12.4232 15.0312 12.5909L17.8901 21.5696C17.9048 21.6175 17.9248 21.6641 17.95 21.7089C17.9789 21.7582 17.9956 21.8117 17.9992 21.8663C18.0028 21.9209 17.9932 21.9756 17.971 22.0271C17.9488 22.0787 17.9144 22.1261 17.8698 22.1665C17.8252 22.207 17.7713 22.2397 17.7113 22.2628C17.6513 22.286 17.5863 22.299 17.5201 22.3012C17.4539 22.3034 17.3879 22.2947 17.3258 22.2756C17.2637 22.2565 17.2069 22.2274 17.1585 22.19C17.1102 22.1526 17.0713 22.1077 17.0442 22.0578C17.032 22.0354 17.0182 22.0137 17.0029 21.9927L12.8646 16.0998C12.7768 15.9747 12.6507 15.8708 12.4989 15.7986C12.3472 15.7264 12.1751 15.6884 12 15.6884C11.8249 15.6884 11.6528 15.7264 11.5011 15.7986C11.3493 15.8708 11.2232 15.9747 11.1354 16.0998L7.00207 21.9876C6.98678 22.0086 6.97301 22.0303 6.96084 22.0526C6.93308 22.1018 6.89385 22.146 6.8454 22.1826C6.79694 22.2193 6.74021 22.2477 6.67845 22.2662C6.58551 22.2944 6.48454 22.2991 6.38835 22.2798C6.29216 22.2604 6.20509 22.218 6.13817 22.1577C6.07125 22.0975 6.02749 22.0222 6.01246 21.9413C5.99742 21.8605 6.01178 21.7778 6.05371 21.7038C6.0789 21.659 6.09898 21.6123 6.11369 21.5644L8.96875 12.5909C9.02083 12.4232 9.00777 12.2462 8.93144 12.085C8.85511 11.9238 8.71935 11.7865 8.54338 11.6925C8.3674 11.5985 8.16009 11.5525 7.95077 11.5611C7.74145 11.5697 7.54071 11.6325 7.37691 11.7405L2.93875 14.6797C2.91001 14.6983 2.88377 14.7189 2.85753 14.7396C2.81163 14.7796 2.7565 14.8115 2.69539 14.8336C2.63428 14.8557 2.56843 14.8675 2.50173 14.8683C2.43503 14.869 2.36882 14.8587 2.307 14.838C2.24518 14.8173 2.18901 14.7866 2.1418 14.7477C2.09459 14.7087 2.05729 14.6624 2.0321 14.6114C2.00691 14.5604 1.99434 14.5057 1.99514 14.4506C1.99593 14.3955 2.01007 14.3411 2.03672 14.2906C2.06338 14.2401 2.102 14.1945 2.15033 14.1565C2.16532 14.1441 2.17906 14.1317 2.19281 14.1183L7.85547 8.81464C8.04315 8.63907 8.27391 8.49848 8.53242 8.40222C8.79093 8.30596 9.07128 8.25622 9.35485 8.25631H14.6452C14.9287 8.25622 15.2091 8.30596 15.4676 8.40222C15.7261 8.49848 15.9568 8.63907 16.1445 8.81464L21.8072 14.1183C21.8209 14.1317 21.8347 14.1441 21.8497 14.1565C21.9431 14.2339 21.9956 14.3387 21.9956 14.448C21.9956 14.5573 21.9431 14.6622 21.8497 14.7396Z" fill="black"/>
</svg>
